<svg version="1.2" xmlns="http://www.w3.org/2000/svg" viewBox="0 0 256 256" width="256" height="256"><defs><clipPath clipPathUnits="userSpaceOnUse" id="cp1"><path d="m24 58l79-1 64 65 20 63 1 42 45-1 7-149-38-77-129 11z"/></clipPath></defs><style>.a{fill:none;stroke:#fff;stroke-linejoin:round;stroke-width:6}.b{fill:none;stroke:#fff;stroke-linecap:round;stroke-linejoin:round;stroke-width:6}</style><path fill-rule="evenodd" class="a" d="m188 90l-1 128h-135v-161h106z"/><path fill-rule="evenodd" class="a" d="m155 59v33.6l31 0.4"/><g clip-path="url(#cp1)"><path fill-rule="evenodd" class="a" d="m204 74l-1 128h-135v-161h106z"/><path fill-rule="evenodd" class="a" d="m204 74l-1 128h-135v-161h106z"/><path fill-rule="evenodd" class="a" d="m204 74l-1 128h-135v-161h106z"/><path fill-rule="evenodd" class="a" d="m204 74l-1 128h-135v-161h106z"/></g><path fill-rule="evenodd" class="b" d="m68 93.5l9.4 12.5 15.6-21.9"/><path fill-rule="evenodd" class="b" d="m68 136.5l9.4 12.5 15.6-21.9"/><path fill-rule="evenodd" class="b" d="m68 178.5l9.4 12.5 15.6-21.9"/><path fill-rule="evenodd" class="b" d="m108 88.8h29.4"/><path fill-rule="evenodd" class="b" d="m108 101.7h29.4"/><path fill-rule="evenodd" class="b" d="m108 130.9h62"/><path fill-rule="evenodd" class="b" d="m108 143.8l62-0.1"/><path fill-rule="evenodd" class="b" d="m108 173.9h62"/><path fill-rule="evenodd" class="b" d="m108 186.8l62-0.1"/><path fill-rule="evenodd" class="b" d="m222 105l9.6-16.2"/><path fill-rule="evenodd" class="b" d="m229.4 121l18.8-0.2"/><path fill-rule="evenodd" class="b" d="m222.7 139.9l10.2 15.9"/><path fill-rule="evenodd" class="b" d="m35.1 139.7l-9.8 16.2"/><path fill-rule="evenodd" class="b" d="m27.8 123.7h-18.8"/><path fill-rule="evenodd" class="b" d="m34.7 104.8l-10-16"/></svg>