<svg version="1.2" xmlns="http://www.w3.org/2000/svg" viewBox="0 0 256 256" width="256" height="256"><style>.a{fill:none;stroke:#fff;stroke-miterlimit:10;stroke-width:6}.b{fill:none;stroke:#fff;stroke-linejoin:round;stroke-width:6}</style><path fill-rule="evenodd" class="a" d="m40 40h176.3c12.1 0 22 9.8 22 22v96c0 12.2-9.9 22-22 22h-176.3c-12.2 0-22-9.8-22-22v-96c0-12.2 9.8-22 22-22z"/><path fill-rule="evenodd" class="a" d="m59.5 211.8h133.6z"/><path fill-rule="evenodd" class="b" d="m113 79l0.2 40.1 34.6-21z"/><path fill-rule="evenodd" class="b" d="m125.5 133c-19.1 0-34.5-15.4-34.5-34.5 0-19.1 15.4-34.5 34.5-34.5 19.1 0 34.5 15.4 34.5 34.5 0 19.1-15.4 34.5-34.5 34.5z"/><path fill-rule="evenodd" class="a" d="m154 180v28h-56v-28z"/><path fill-rule="evenodd" class="a" d="m16.9 153.4h222.4z"/></svg>